<svg width="66" height="24" viewBox="0 0 66 24" xmlns="http://www.w3.org/2000/svg">
    <defs>
        <clipPath id="yxm91cscxa">
            <path d="M375 0v1139H0V0h375z"/>
        </clipPath>
        <clipPath id="h8q22ekc3b">
            <path d="M2.359 0c1.3 0 2.359 1.061 2.359 2.366a2.365 2.365 0 0 1-2.36 2.367A2.365 2.365 0 0 1 0 2.366 2.365 2.365 0 0 1 2.359 0z"/>
        </clipPath>
        <clipPath id="m0z753q6xc">
            <path d="M9.47 0c1.388 0 2.356 1.116 2.356 2.712 0 1.548-1.175 2.809-2.62 2.809-.838 0-1.304-.493-1.678-.89-.248-.262-.463-.487-.723-.487a.401.401 0 0 0-.297.129c-.334.342-.313 1.313-.302 1.835l.003.18c0 .736.067 1.758.176 2.668.068.54.49.683.899.82.467.157.907.305.907 1.03 0 1.437-1.851 1.552-4.272 1.552h-.24c-.89-.005-2.645-.043-3.363-.761A1.036 1.036 0 0 1 0 10.829c0-.52.278-.742.598-1 .264-.212.539-.432.654-.835.186-.637.246-2.082.246-2.683v-1.45c0-1.384-.477-1.572-.86-1.723-.294-.117-.506-.2-.506-.788C.132.596 4.97 0 5.395 0c.753 0 .77.168.858.98l.007.111c.015.306.042.818.457.818.23 0 .404-.25.623-.565C7.736.777 8.278 0 9.47 0z"/>
        </clipPath>
        <clipPath id="zog35nksid">
            <path d="M7.444 0c3.97 0 6.343 3.16 6.343 6.215 0 3.76-3.86 6.287-7.466 6.287C1.955 12.502 0 9.575 0 6.673 0 3.357 2.557 0 7.444 0zM6.437 2.67a1.13 1.13 0 0 0-.845.367c-.274.294-.42.735-.39 1.178.302 4.927 1.77 5.397 2.213 5.424l.082.002c.284 0 .516-.084.69-.25.27-.255.4-.694.4-1.34 0-.837-.397-5.381-2.15-5.381z"/>
        </clipPath>
        <clipPath id="8c06jilmje">
            <path d="M4.294 0c2.28 0 3.435.457 3.435 1.359 0 .29-.127.484-.24.653-.092.14-.179.273-.179.434 0 .386 1.01 2.651 1.654 2.651.472 0 1.104-1.335 1.104-1.685 0-.663-.418-.974-.786-1.248-.311-.232-.58-.432-.58-.805v-.053C8.71.902 8.894 0 13.039 0h.238c.75.002 2.068.036 2.62.59a.812.812 0 0 1 .247.6c0 .448-.197.663-.388.87-.156.17-.317.346-.317.628 0 .489.844 2.457 1.411 2.457.73 0 1.588-2.25 1.588-2.457 0-.312-.149-.514-.294-.71-.159-.216-.322-.44-.322-.836 0-1.05 1.654-1.135 2.42-1.141h.369c.809.006 2.406.088 2.406 1.117 0 .581-.253.68-.673.844-.472.184-1.118.437-1.654 1.533l-2.819 6.063-.04.082-.107.22-.13.263c-.451.887-1.228 2.235-1.955 2.235-.75 0-1.715-1.724-2.127-2.46l-1.21-2.133a4.164 4.164 0 0 1-.065-.118c-.169-.306-.4-.725-.74-.725-.478 0-.79.62-.996 1.03l-1.66 3.171-.035.064c-.289.522-.647 1.17-1.252 1.17-.718 0-1.17-.822-1.534-1.484L1.773 3.297c-.353-.643-.8-.8-1.158-.925C.245 2.242 0 2.156 0 1.577 0 .076 3.577 0 4.294 0z"/>
        </clipPath>
        <clipPath id="8fo12rxfyf">
            <path d="M15.2 0v19.087H0V0h15.2z"/>
        </clipPath>
        <clipPath id="u5cw2eaerg">
            <path d="M7.107 0c1.643 0 3.333.38 4.436 1.003 1.516.853 2.142 1.832 2.159 3.378.013 1.182-.663 2.304-1.903 3.16-1.251.861-2.923 1.348-4.71 1.367h-.074a1.297 1.297 0 0 0-.071-.003l-.062.002c-.056.002-.111 0-.166-.004a2.82 2.82 0 0 0-.076-.005 10.31 10.31 0 0 1-.53-.032 7.177 7.177 0 0 0-.663-.039c-.485 0-.798.324-.798.825 0 .809.955 1.098 1.849 1.098.386 0 1.26-.102 2.186-.21 1.066-.125 2.168-.254 2.721-.254 2.8 0 3.795 1.697 3.795 3.15 0 2.098-1.81 5.651-8.597 5.651C1.729 19.087 0 17.171 0 15.531c0-.995.587-1.333 1.017-1.58.238-.137.427-.245.427-.435 0-.162-.18-.342-.43-.59l-.107-.108c-.402-.404-.881-.938-.881-1.615 0-1.29.967-1.94 1.607-2.37.324-.218.52-.349.52-.515 0-.127-.135-.282-.38-.563C1.249 7.146.369 6.129.369 4.727c0-.033.003-.064.006-.096a.789.789 0 0 0 .006-.103c-.013-1.182.663-2.304 1.903-3.16C3.533.507 5.206.02 6.99.002zM4.11 14.488c-.28 0-.405.263-.405.525 0 1.514 2.068 1.914 3.16 1.914.88 0 2.925-.144 2.925-1.479 0-.626-.56-.906-1.113-.906a8.88 8.88 0 0 0-.747.06c-.453.046-1.017.104-1.51.104-.352 0-.995-.077-1.512-.138-.377-.045-.675-.08-.798-.08zM7.023 1.806c-1.078 0-1.56 1.03-1.56 2.05 0 .346.047 3.382 1.69 3.382 1.043 0 1.665-.827 1.665-2.212 0-.968-.175-3.22-1.795-3.22z"/>
        </clipPath>
    </defs>
    <g clip-path="url(#yxm91cscxa)" transform="translate(-16 -54)">
        <g clip-path="url(#h8q22ekc3b)" transform="translate(27.409 54)">
            <path fill="#FF3D3E" d="M0 0h4.718v4.733H0V0z"/>
        </g>
        <g clip-path="url(#m0z753q6xc)" transform="translate(32.311 59.387)">
            <path fill="#FFF" d="M0 0h11.826v12.358H0V0z"/>
        </g>
        <g clip-path="url(#zog35nksid)" transform="translate(44.972 59.315)">
            <path fill="#FFF" d="M0 0h13.787v12.502H0V0z"/>
        </g>
        <g clip-path="url(#8c06jilmje)" transform="translate(58.983 59.387)">
            <path fill="#FFF" d="M0 0h23.017v12.358H0V0z"/>
        </g>
        <g clip-path="url(#8fo12rxfyf)" transform="translate(16 58.913)">
            <g clip-path="url(#u5cw2eaerg)">
                <path fill="#FFF" d="M0 0h15.2v19.087H0V0z"/>
            </g>
        </g>
    </g>
</svg>
